<mxfile host="Electron" modified="2024-02-25T03:25:44.842Z" agent="Mozilla/5.0 (Macintosh; Intel Mac OS X 10_15_7) AppleWebKit/537.36 (KHTML, like Gecko) draw.io/23.1.5 Chrome/120.0.6099.109 Electron/28.1.0 Safari/537.36" etag="iRbJCM2bZBHdfEwpznwS" version="23.1.5" type="device">
  <diagram name="페이지-1" id="bTfaELEwHjX9TWsX-TDQ">
    <mxGraphModel dx="1114" dy="894" grid="1" gridSize="10" guides="1" tooltips="1" connect="1" arrows="1" fold="1" page="1" pageScale="1" pageWidth="827" pageHeight="1169" math="0" shadow="0">
      <root>
        <mxCell id="0" />
        <mxCell id="1" parent="0" />
        <mxCell id="QPeDZMuEdSq8RtUy32aL-26" value="리소스 소유자&lt;br&gt;(사용자)" style="sketch=0;outlineConnect=0;fontColor=#232F3E;gradientColor=none;fillColor=#232F3D;strokeColor=none;dashed=0;verticalLabelPosition=bottom;verticalAlign=top;align=center;html=1;fontSize=12;fontStyle=0;aspect=fixed;pointerEvents=1;shape=mxgraph.aws4.user;" vertex="1" parent="1">
          <mxGeometry x="90" y="90" width="40" height="40" as="geometry" />
        </mxCell>
        <mxCell id="QPeDZMuEdSq8RtUy32aL-27" value="Client" style="sketch=0;pointerEvents=1;shadow=0;dashed=0;html=1;strokeColor=none;fillColor=#505050;labelPosition=center;verticalLabelPosition=bottom;verticalAlign=top;outlineConnect=0;align=center;shape=mxgraph.office.devices.mac_client;" vertex="1" parent="1">
          <mxGeometry x="271" y="90" width="40" height="40" as="geometry" />
        </mxCell>
        <mxCell id="QPeDZMuEdSq8RtUy32aL-28" value="권한 부여 서버" style="sketch=0;aspect=fixed;pointerEvents=1;shadow=0;dashed=0;html=1;strokeColor=none;labelPosition=center;verticalLabelPosition=bottom;verticalAlign=top;align=center;fillColor=#00188D;shape=mxgraph.mscae.enterprise.database_server" vertex="1" parent="1">
          <mxGeometry x="453" y="90" width="38" height="50" as="geometry" />
        </mxCell>
        <mxCell id="QPeDZMuEdSq8RtUy32aL-29" value="리소스 서버" style="sketch=0;aspect=fixed;pointerEvents=1;shadow=0;dashed=0;html=1;strokeColor=none;labelPosition=center;verticalLabelPosition=bottom;verticalAlign=top;align=center;fillColor=#00188D;shape=mxgraph.mscae.enterprise.database_server" vertex="1" parent="1">
          <mxGeometry x="633" y="90" width="38" height="50" as="geometry" />
        </mxCell>
        <mxCell id="QPeDZMuEdSq8RtUy32aL-30" value="" style="endArrow=none;html=1;rounded=0;strokeWidth=2;" edge="1" parent="1">
          <mxGeometry width="50" height="50" relative="1" as="geometry">
            <mxPoint x="110" y="440" as="sourcePoint" />
            <mxPoint x="110" y="170" as="targetPoint" />
          </mxGeometry>
        </mxCell>
        <mxCell id="QPeDZMuEdSq8RtUy32aL-31" value="" style="endArrow=none;html=1;rounded=0;strokeWidth=2;" edge="1" parent="1">
          <mxGeometry width="50" height="50" relative="1" as="geometry">
            <mxPoint x="290" y="440" as="sourcePoint" />
            <mxPoint x="290.5" y="170" as="targetPoint" />
          </mxGeometry>
        </mxCell>
        <mxCell id="QPeDZMuEdSq8RtUy32aL-32" value="" style="endArrow=none;html=1;rounded=0;strokeWidth=2;" edge="1" parent="1">
          <mxGeometry width="50" height="50" relative="1" as="geometry">
            <mxPoint x="470" y="440" as="sourcePoint" />
            <mxPoint x="471.5" y="170" as="targetPoint" />
          </mxGeometry>
        </mxCell>
        <mxCell id="QPeDZMuEdSq8RtUy32aL-33" value="" style="endArrow=none;html=1;rounded=0;strokeWidth=2;" edge="1" parent="1">
          <mxGeometry width="50" height="50" relative="1" as="geometry">
            <mxPoint x="652" y="440" as="sourcePoint" />
            <mxPoint x="651.5" y="170" as="targetPoint" />
          </mxGeometry>
        </mxCell>
        <mxCell id="QPeDZMuEdSq8RtUy32aL-34" value="화살표는 HTTP 의 요청과 응답이 아니라 OAuth 2 구성 요소 간에 교환되는 메시지임" style="text;html=1;align=center;verticalAlign=middle;whiteSpace=wrap;rounded=0;fillColor=#d5e8d4;strokeColor=#82b366;sketch=1;curveFitting=1;jiggle=2;" vertex="1" parent="1">
          <mxGeometry x="70" y="10" width="220" height="40" as="geometry" />
        </mxCell>
        <mxCell id="QPeDZMuEdSq8RtUy32aL-35" value="" style="endArrow=block;html=1;rounded=0;endFill=1;fontColor=#3333FF;strokeColor=#3333FF;" edge="1" parent="1">
          <mxGeometry width="50" height="50" relative="1" as="geometry">
            <mxPoint x="110" y="210" as="sourcePoint" />
            <mxPoint x="290" y="210" as="targetPoint" />
          </mxGeometry>
        </mxCell>
        <mxCell id="QPeDZMuEdSq8RtUy32aL-36" value="" style="endArrow=block;html=1;rounded=0;endFill=1;fontColor=#FF66B3;strokeColor=#FF66B3;" edge="1" parent="1">
          <mxGeometry width="50" height="50" relative="1" as="geometry">
            <mxPoint x="291" y="352" as="sourcePoint" />
            <mxPoint x="650" y="352" as="targetPoint" />
          </mxGeometry>
        </mxCell>
        <mxCell id="QPeDZMuEdSq8RtUy32aL-41" value="" style="endArrow=block;html=1;rounded=0;endFill=1;fontColor=#FF66B3;strokeColor=#FF66B3;" edge="1" parent="1">
          <mxGeometry width="50" height="50" relative="1" as="geometry">
            <mxPoint x="650" y="392" as="sourcePoint" />
            <mxPoint x="291" y="392" as="targetPoint" />
          </mxGeometry>
        </mxCell>
        <mxCell id="QPeDZMuEdSq8RtUy32aL-43" value="1.1. 리소스 서버 접근 요청" style="text;html=1;align=center;verticalAlign=middle;whiteSpace=wrap;rounded=0;fontColor=#3333FF;" vertex="1" parent="1">
          <mxGeometry x="112" y="191" width="130" height="20" as="geometry" />
        </mxCell>
        <mxCell id="QPeDZMuEdSq8RtUy32aL-44" value="1.2. 사용자 자격 증명으로 &lt;br&gt;액세스 토큰 요청" style="text;html=1;align=center;verticalAlign=middle;whiteSpace=wrap;rounded=0;fontColor=#3333FF;" vertex="1" parent="1">
          <mxGeometry x="292" y="210" width="180" height="37" as="geometry" />
        </mxCell>
        <mxCell id="QPeDZMuEdSq8RtUy32aL-47" value="2.1. 액세스 토큰으로 리소스 접근" style="text;html=1;align=center;verticalAlign=middle;whiteSpace=wrap;rounded=0;fontColor=#FF66B3;" vertex="1" parent="1">
          <mxGeometry x="292" y="332" width="168" height="20" as="geometry" />
        </mxCell>
        <mxCell id="QPeDZMuEdSq8RtUy32aL-48" value="2.2. 토큰 확인 후 리소스 제공" style="text;html=1;align=center;verticalAlign=middle;whiteSpace=wrap;rounded=0;fontColor=#FF66B3;" vertex="1" parent="1">
          <mxGeometry x="491" y="371" width="168" height="20" as="geometry" />
        </mxCell>
        <mxCell id="QPeDZMuEdSq8RtUy32aL-51" value="" style="endArrow=block;html=1;rounded=0;endFill=1;fontColor=#3333FF;strokeColor=#3333FF;" edge="1" parent="1">
          <mxGeometry width="50" height="50" relative="1" as="geometry">
            <mxPoint x="290" y="248" as="sourcePoint" />
            <mxPoint x="470" y="248" as="targetPoint" />
          </mxGeometry>
        </mxCell>
        <mxCell id="QPeDZMuEdSq8RtUy32aL-52" value="" style="endArrow=none;html=1;rounded=0;endFill=0;fontColor=#3333FF;strokeColor=#3333FF;startArrow=block;startFill=1;" edge="1" parent="1">
          <mxGeometry width="50" height="50" relative="1" as="geometry">
            <mxPoint x="290" y="290" as="sourcePoint" />
            <mxPoint x="470" y="290" as="targetPoint" />
          </mxGeometry>
        </mxCell>
        <mxCell id="QPeDZMuEdSq8RtUy32aL-53" value="1.3. 액세스 토큰 발급" style="text;html=1;align=center;verticalAlign=middle;whiteSpace=wrap;rounded=0;fontColor=#3333FF;" vertex="1" parent="1">
          <mxGeometry x="321" y="270" width="180" height="20" as="geometry" />
        </mxCell>
      </root>
    </mxGraphModel>
  </diagram>
</mxfile>
